<svg xmlns="http://www.w3.org/2000/svg" version="1.1" xmlns:xlink="http://www.w3.org/1999/xlink" xmlns:svgjs="http://svgjs.dev/svgjs" width="2000" height="1247" viewBox="0 0 2000 1247"><g transform="matrix(1,0,0,1,-1.2121212121212466,0.5048582995951847)"><svg viewBox="0 0 396 247" data-background-color="#0d0024" preserveAspectRatio="xMidYMid meet" height="1247" width="2000" xmlns="http://www.w3.org/2000/svg" xmlns:xlink="http://www.w3.org/1999/xlink"><g id="tight-bounds" transform="matrix(1,0,0,1,0.2400000000000091,-0.09999999999999432)"><svg viewBox="0 0 395.52 247.2" height="247.2" width="395.52"><g><svg></svg></g><g><svg viewBox="0 0 395.52 247.2" height="247.2" width="395.52"><g transform="matrix(1,0,0,1,75.54432,79.48413024142525)"><svg viewBox="0 0 244.43135999999998 88.23173951714948" height="88.23173951714948" width="244.43135999999998"><g><svg viewBox="0 0 423.22276880189986 152.76960000000003" height="88.23173951714948" width="244.43135999999998"><g><svg viewBox="0 0 244.01197605698633 152.76960000000003" height="152.76960000000003" width="244.01197605698633"><g id="textblocktransform"><svg viewBox="0 0 244.01197605698633 152.76960000000003" height="152.76960000000003" width="244.01197605698633" id="textblock"><g><svg viewBox="0 0 244.01197605698633 152.76960000000003" height="152.76960000000003" width="244.01197605698633"><path d="M243.441 32.766C242.294 16.909 239.024 12.5 239.024 12.5 228.987-3.833 216.46-0.312 205.206 2.034 185.337 2.13 165.549 5.618 145.726 7.489 104.119 7.775 62.156 3.081 20.755 14.657 16.867 18.209-4.035 15.355 0.692 34.796 1.931 42.883 6.45 51.859 6.313 59.28 6.932 60.58 7.793 57.599 8.16 59.47 9.444 64.513 11.544 62.134 13.265 65.115 10.867 73.076 12.588 79.704 14.228 86.65 11.337 88.457 7.632 87.601 5.969 93.595 5.797 97.94 4.867 97.116 3.846 96.925 3.101 96.798 1.598 97.274 1.85 98.638 2.711 103.3-0.983 105.996 1.334 110.563-0.26 115.51 2.435 119.792 2.068 125.152 2.022 126.23 2.275 127.15 2.676 127.403 4.454 128.767 1.862 131.431 2.137 134.317 20.377 154.044 40.165 140.406 58.852 149.477 63.705 143.134 60.057 151.729 61.996 150.397 63.51 148.843 64.611 155.281 66.32 151.633 66.584 150.587 66.183 148.113 67.123 148.589 67.617 148.843 68.053 148.779 68.121 147.32 68.225 145.132 67.318 146.496 67.077 145.354 69.681 139.582 69.039 153.314 71.483 152.743 71.368 151.063 70.657 148.652 72.113 148.969 73.559 146.559 73.605 144.561 74.89 149.984 74.935 151.158 75.165 151.982 75.532 152.553 79.547 146.654 83.539 154.646 87.749 151.982 90.33 149.065 92.808 153.568 95.424 152.458 96.341 151.57 97.271 149.984 98.154 152.648 108.971 153.219 120.5 150.841 130.756 152.743 158.161 149.191 187.448 154.202 216.345 149.509 223.159 147.701 230.237 145.132 236.879 143.07 236.879 143.07 242.259 137.425 242.259 112.053S243.406 89.853 243.578 69.651C243.75 49.448 244.553 48.624 243.406 32.766Z" opacity="1" fill="#ffffff" data-fill-palette-color="tertiary"></path><g transform="matrix(1,0,0,1,34.46482176,16.210552000000014)"><svg width="175.0823325369863" viewBox="2.5 -36.5 53.1 36.5" height="120.34849600000001" data-palette-color="#000000"><path d="M7.1 0L2.5 0 12-36.5 18.05-36.5 27.5 0 22.95 0 20.55-9.7 9.5-9.7 7.1 0ZM13.2-24.8L10.4-13.5 19.6-13.5 16.8-24.75Q16-27.95 15.55-30.1 15.1-32.25 15-32.9L15-32.9Q14.9-32.25 14.45-30.1 14-27.95 13.2-24.8L13.2-24.8ZM44.05 0L34.6 0 34.6-36.5 44.05-36.5Q47.6-36.5 50.17-35.15 52.75-33.8 54.17-31.35 55.6-28.9 55.6-25.55L55.6-25.55 55.6-11Q55.6-7.65 54.17-5.18 52.75-2.7 50.17-1.35 47.6 0 44.05 0L44.05 0ZM39.1-32.5L39.1-4 44.05-4Q47.35-4 49.22-5.85 51.1-7.7 51.1-11L51.1-11 51.1-25.55Q51.1-28.8 49.22-30.65 47.35-32.5 44.05-32.5L44.05-32.5 39.1-32.5Z" opacity="1" transform="matrix(1,0,0,1,0,0)" fill="#000000" class="wordmark-text-0" data-fill-palette-color="quaternary" id="text-0"></path></svg></g></svg></g></svg></g></svg></g><g transform="matrix(1,0,0,1,272.4233675986823,7.268407781858642)"><svg viewBox="0 0 150.79940120321754 138.23278443628274" height="138.23278443628274" width="150.79940120321754"><g><svg xmlns="http://www.w3.org/2000/svg" xmlns:xlink="http://www.w3.org/1999/xlink" version="1.1" x="0" y="0" viewBox="0 1 24 22" style="enable-background:new 0 0 24 24;" xml:space="preserve" height="138.23278443628274" width="150.79940120321754" class="icon-icon-0" data-fill-palette-color="accent" id="icon-0"><g fill="#7a15c4" data-fill-palette-color="accent"><path d="M21.5 1h-19C1.122 1 0 2.122 0 3.5v17C0 21.878 1.122 23 2.5 23h19c1.378 0 2.5-1.122 2.5-2.5v-17C24 2.122 22.878 1 21.5 1zM2.5 2h19C22.327 2 23 2.673 23 3.5V5H1V3.5C1 2.673 1.673 2 2.5 2zM21.5 22h-19C1.673 22 1 21.327 1 20.5V6h22v14.5C23 21.327 22.327 22 21.5 22z" fill="#7a15c4" data-fill-palette-color="accent"></path><circle cx="2.5" cy="3.5" r="0.50" fill="#7a15c4" data-fill-palette-color="accent"></circle><circle cx="4.5" cy="3.5" r="0.50" fill="#7a15c4" data-fill-palette-color="accent"></circle><circle cx="6.5" cy="3.5" r="0.50" fill="#7a15c4" data-fill-palette-color="accent"></circle><path d="M7.853 10.148c-0.195-0.195-0.512-0.195-0.707 0s-0.195 0.512 0 0.707l2.646 2.646-2.646 2.646c-0.195 0.195-0.195 0.512 0 0.707C7.244 16.951 7.372 17 7.5 17s0.256-0.049 0.353-0.145l3-3c0.195-0.195 0.195-0.512 0-0.707L7.853 10.148z" fill="#7a15c4" data-fill-palette-color="accent"></path><path d="M17.5 15h-5c-0.276 0-0.5 0.224-0.5 0.5s0.224 0.5 0.5 0.5h5c0.276 0 0.5-0.224 0.5-0.5S17.776 15 17.5 15z" fill="#7a15c4" data-fill-palette-color="accent"></path></g></svg></g></svg></g></svg></g></svg></g><g><path d="M245.816 0c68.262 0 123.6 55.338 123.6 123.6 0 68.262-55.338 123.6-123.6 123.6-49.562 0-92.31-29.171-112.013-71.28l3.471 0c19.474 40.326 60.759 68.146 108.542 68.146 66.531 0 120.466-53.934 120.466-120.466 0-66.531-53.934-120.466-120.466-120.466-47.783 0-89.068 27.82-108.542 68.146l-3.471 0c19.703-42.109 62.451-71.28 112.013-71.28z" fill="#ffffff" stroke="transparent" data-fill-palette-color="tertiary"></path></g></svg></g><defs></defs></svg><rect width="395.52" height="247.2" fill="none" stroke="none" visibility="hidden"></rect></g></svg></g></svg>